<svg width="126" height="125" viewBox="0 0 126 125" fill="none" xmlns="http://www.w3.org/2000/svg">
<g id="Diamante">
<rect x="3.42413" y="2.5" width="120" height="120" rx="12.5" fill="white"/>
<rect x="3.42413" y="2.5" width="120" height="120" rx="12.5" stroke="#FFABAB" stroke-width="5"/>
<path id="Vector" d="M81.3545 35.1461C80.7708 34.3285 80.0005 33.6619 79.1076 33.2017C78.2146 32.7415 77.2247 32.5009 76.2202 32.5H49.7783C47.7448 32.5 45.825 33.4883 44.5146 35.3387L31.8841 56.1189C31.5312 56.6987 31.3747 57.3768 31.4378 58.0526C31.501 58.7284 31.7804 59.3658 32.2346 59.8702L60.6531 91.4463C60.9477 91.7774 61.3089 92.0425 61.7131 92.2241C62.1173 92.4057 62.5554 92.4997 62.9985 92.5C63.4417 92.5003 63.8799 92.4068 64.2843 92.2258C64.6888 92.0447 65.0504 91.7802 65.3454 91.4495L93.7639 59.8733C94.219 59.3695 94.4991 58.732 94.5622 58.0559C94.6254 57.3799 94.4683 56.7015 94.1144 56.1221L81.3545 35.1461ZM62.9992 84.6164L41.6696 60.9185H84.3258L62.9992 84.6164ZM40.1918 54.6033L49.7783 38.8152L76.0876 38.6195L85.8035 54.6033H40.1918Z" fill="#FFABAB"/>
</g>
</svg>
