<svg width="61" height="53" viewBox="0 0 61 53" fill="none" xmlns="http://www.w3.org/2000/svg">
<path id="Vector" d="M49.975 5.50978C47.9052 8.00772 45.8018 9.84227 42.607 7.91052C39.7919 6.20967 37.7873 4.01085 34.217 4.36194C31.4361 4.63309 29.1775 6.96664 28.3862 9.52438C28.272 9.894 28.235 10.2777 28.2371 10.6707C26.0893 10.6228 23.9494 11.4436 22.3788 13.0591L22.317 13.013L2.19232 40.0861L2.20676 40.0963C2.13388 40.1848 2.05691 40.2676 1.98733 40.3623C-0.620096 43.8689 0.109356 48.827 3.61598 51.433C7.1242 54.0418 12.0817 53.3113 14.6891 49.8041C14.7587 49.71 14.8164 49.6126 14.8796 49.5172L14.8941 49.5287L35.0195 22.456L34.9577 22.41C36.8574 18.9939 35.9872 14.6194 32.7649 12.224C31.9954 11.6515 31.1554 11.2449 30.2865 10.9895C30.2969 9.63751 31.0055 8.45249 32.0303 7.53442C33.6492 6.08381 35.8024 6.15476 37.6746 7.01098C40.3545 8.23636 42.2544 11.0978 45.5129 10.9002C48.187 10.7379 50.0296 8.67351 51.6316 6.74187C52.4823 5.71545 50.821 4.4887 49.975 5.50978ZM30.49 12.5523C30.9772 12.7662 31.4557 13.0368 31.9099 13.3744C34.5503 15.3374 35.4078 18.652 33.8271 20.7783C32.2467 22.9052 28.8241 23.0389 26.1843 21.0763C23.543 19.113 22.6865 15.7983 24.267 13.671C25.1857 12.4351 26.7272 11.8784 28.3761 12.0085C28.6889 13.7722 29.325 15.5799 28.1751 16.9561C27.321 17.9796 28.9815 19.2058 29.8313 18.1879C31.2649 16.4727 30.8532 14.5293 30.49 12.5523ZM48.84 3.4192L47.1741 0L49.4294 3.06334L48.84 3.4192ZM55.6884 1.71528L53.1133 4.79749L52.6254 4.31168L55.6884 1.71528ZM60.4241 11.5868L53.409 8.02011L53.747 7.4213L60.4241 11.5868ZM52.655 8.71535L52.8169 17.6665L51.9675 8.75491L52.655 8.71535Z" fill="white"/>
</svg>
