<svg width="126" height="125" viewBox="0 0 126 125" fill="none" xmlns="http://www.w3.org/2000/svg">
<rect x="3.42413" y="2.5" width="120" height="120" rx="12.5" fill="white"/>
<rect x="3.42413" y="2.5" width="120" height="120" rx="12.5" stroke="#F51653" stroke-width="5"/>
<path d="M67.5374 36.6822L67.5378 36.6822L76.2921 40.4036L76.0097 40.8162C76.0097 40.8162 76.0098 40.8163 76.0098 40.8163C76.8993 41.4252 77.7448 41.7591 78.5602 41.8415C79.3801 41.9244 80.1338 41.7494 80.8291 41.3974C82.1907 40.7081 83.3476 39.3266 84.432 37.845L84.0546 37.5688L84.432 37.845C84.5731 37.6522 84.7153 37.6003 84.8277 37.5942C84.9552 37.5873 85.1075 37.6371 85.2449 37.7524C85.5195 37.9828 85.6259 38.362 85.3645 38.719C84.5223 39.8686 83.6463 41.0155 82.6464 41.9003C81.6519 42.7803 80.5666 43.3724 79.309 43.4587C77.789 43.5631 76.5607 42.8693 75.309 41.8869C74.9347 41.5932 74.582 41.2937 74.2206 40.9868C73.9623 40.7675 73.6996 40.5445 73.4215 40.3171C72.7766 39.7899 72.0926 39.2784 71.3429 38.8903C69.2542 37.8088 66.7341 37.6744 64.8304 39.6055C63.6865 40.7657 62.8676 42.2929 62.8555 44.0604L62.853 44.4236L63.1977 44.5382C64.0501 44.8218 64.8763 45.274 65.6357 45.9137L65.6359 45.9138C68.8284 48.6007 69.7138 53.5465 67.8115 57.4194L67.6391 57.7702L67.6637 57.791L47.0952 89.1159L47.0568 89.0813L46.7468 89.6109C46.716 89.6635 46.6912 89.7075 46.6689 89.7471C46.6313 89.8139 46.6007 89.8683 46.56 89.9306C43.9754 93.866 39.1124 94.6537 35.6735 91.7584L35.6734 91.7583C32.196 88.8325 31.4527 83.2238 34.0593 79.2551L34.0608 79.2528C34.1003 79.192 34.1341 79.1476 34.177 79.0912C34.2049 79.0546 34.2366 79.0129 34.2762 78.9583L34.5581 78.5706L34.5254 78.5447L55.0962 47.2147L55.109 47.2256L55.4318 46.8497C56.9871 45.0386 59.0921 44.1316 61.191 44.1847L61.706 44.1977L61.7036 43.6825C61.7016 43.2431 61.7384 42.8353 61.8426 42.4538C62.6427 39.5258 64.8972 36.9737 67.5374 36.6822ZM63.7918 45.4738L62.9196 45.0401L63.0757 46.0016C63.0826 46.0446 63.0896 46.0875 63.0966 46.1304C63.4781 48.4781 63.8095 50.5168 62.4753 52.3238L62.4751 52.3241C62.3334 52.5163 62.1905 52.5683 62.077 52.5743C61.9486 52.5811 61.7958 52.5308 61.6585 52.4157C61.3843 52.1856 61.2792 51.8085 61.541 51.4533C62.2415 50.504 62.3797 49.4233 62.3192 48.3601C62.2782 47.6386 62.1389 46.8693 62.0055 46.1327C61.9476 45.8127 61.8908 45.4988 61.8436 45.1977L61.7831 44.8118L61.3941 44.777C59.5046 44.6083 57.6961 45.3336 56.6171 46.9769L56.6171 46.977C54.7815 49.7741 55.8157 53.9876 58.7263 56.4369C61.6462 58.8948 65.6141 58.8343 67.4911 55.9746C69.3271 53.1786 68.2915 48.9651 65.3821 46.5162L65.382 46.5162C64.8732 46.0881 64.3371 45.7449 63.7918 45.4738Z" fill="#F51653" stroke="#EF0041"/>
</svg>
