<svg width="40" height="40" viewBox="0 0 40 40" fill="none" xmlns="http://www.w3.org/2000/svg">
<path d="M10.5267 23.5408L8.04338 34.2941C7.96648 34.6197 7.98956 34.961 8.10962 35.2733C8.22967 35.5855 8.44111 35.8544 8.71633 36.0446C8.99154 36.2349 9.31773 36.3377 9.6523 36.3397C9.98687 36.3417 10.3143 36.2427 10.5917 36.0558L19.6667 30.0058L28.7417 36.0558C29.0256 36.2443 29.3604 36.3413 29.7011 36.3338C30.0418 36.3264 30.372 36.2147 30.6474 36.014C30.9227 35.8132 31.13 35.533 31.2413 35.2109C31.3526 34.8888 31.3627 34.5404 31.27 34.2124L28.2217 23.5458L35.7817 16.7424C36.0238 16.5244 36.1968 16.2402 36.2791 15.925C36.3614 15.6097 36.3495 15.2772 36.2449 14.9687C36.1402 14.6601 35.9475 14.389 35.6904 14.1888C35.4333 13.9887 35.1232 13.8682 34.7984 13.8424L25.2967 13.0858L21.185 3.98411C21.0539 3.69104 20.8408 3.44217 20.5714 3.26755C20.302 3.09292 19.9878 3 19.6667 3C19.3456 3 19.0314 3.09292 18.762 3.26755C18.4926 3.44217 18.2795 3.69104 18.1484 3.98411L14.0367 13.0858L4.53504 13.8408C4.2158 13.8661 3.91061 13.9828 3.65597 14.177C3.40133 14.3712 3.20803 14.6346 3.0992 14.9358C2.99037 15.237 2.97061 15.5632 3.04229 15.8753C3.11396 16.1874 3.27405 16.4723 3.50338 16.6958L10.5267 23.5408ZM15.2817 16.3308C15.5792 16.3073 15.8649 16.2043 16.1089 16.0325C16.3529 15.8606 16.5461 15.6263 16.6684 15.3541L19.6667 8.71911L22.665 15.3541C22.7873 15.6263 22.9806 15.8606 23.2245 16.0325C23.4685 16.2043 23.7542 16.3073 24.0517 16.3308L30.6717 16.8558L25.22 21.7624C24.7467 22.1891 24.5584 22.8458 24.7317 23.4591L26.82 30.7674L20.5934 26.6158C20.3201 26.4323 19.9984 26.3344 19.6692 26.3344C19.3401 26.3344 19.0183 26.4323 18.745 26.6158L12.2384 30.9541L13.9884 23.3774C14.0525 23.0988 14.0439 22.8083 13.9634 22.5339C13.8828 22.2596 13.733 22.0105 13.5284 21.8108L8.46504 16.8741L15.2817 16.3308Z" fill="white"/>
</svg>
